<mxfile host="app.diagrams.net" agent="Mozilla/5.0 (Windows NT 10.0; Win64; x64; rv:138.0) Gecko/20100101 Firefox/138.0" version="27.0.8">
  <diagram name="Страница — 1" id="7FleMKCiTm_v5I4Sziyt">
    <mxGraphModel dx="2515" dy="1770" grid="1" gridSize="10" guides="1" tooltips="1" connect="1" arrows="1" fold="1" page="1" pageScale="1" pageWidth="827" pageHeight="1169" math="0" shadow="0">
      <root>
        <mxCell id="0" />
        <mxCell id="1" parent="0" />
        <mxCell id="6KIEwpLQ4VhNKN5NyBQB-17" value="" style="shape=table;startSize=0;container=1;collapsible=0;childLayout=tableLayout;fontSize=24;align=center;verticalAlign=middle;fontFamily=Courier New;" vertex="1" parent="1">
          <mxGeometry x="38" y="80" width="970" height="760" as="geometry" />
        </mxCell>
        <mxCell id="6KIEwpLQ4VhNKN5NyBQB-18" value="" style="shape=tableRow;horizontal=0;startSize=0;swimlaneHead=0;swimlaneBody=0;strokeColor=inherit;top=0;left=0;bottom=0;right=0;collapsible=0;dropTarget=0;fillColor=none;points=[[0,0.5],[1,0.5]];portConstraint=eastwest;fontSize=24;" vertex="1" parent="6KIEwpLQ4VhNKN5NyBQB-17">
          <mxGeometry width="970" height="40" as="geometry" />
        </mxCell>
        <mxCell id="6KIEwpLQ4VhNKN5NyBQB-19" value="&lt;b&gt;URL&lt;/b&gt;" style="shape=partialRectangle;html=1;whiteSpace=wrap;connectable=0;strokeColor=inherit;overflow=hidden;fillColor=none;top=0;left=0;bottom=0;right=0;pointerEvents=1;fontSize=24;" vertex="1" parent="6KIEwpLQ4VhNKN5NyBQB-18">
          <mxGeometry width="433" height="40" as="geometry">
            <mxRectangle width="433" height="40" as="alternateBounds" />
          </mxGeometry>
        </mxCell>
        <mxCell id="6KIEwpLQ4VhNKN5NyBQB-21" value="&lt;b&gt;View&lt;/b&gt;" style="shape=partialRectangle;html=1;whiteSpace=wrap;connectable=0;strokeColor=inherit;overflow=hidden;fillColor=none;top=0;left=0;bottom=0;right=0;pointerEvents=1;fontSize=24;" vertex="1" parent="6KIEwpLQ4VhNKN5NyBQB-18">
          <mxGeometry x="433" width="537" height="40" as="geometry">
            <mxRectangle width="537" height="40" as="alternateBounds" />
          </mxGeometry>
        </mxCell>
        <mxCell id="6KIEwpLQ4VhNKN5NyBQB-22" value="" style="shape=tableRow;horizontal=0;startSize=0;swimlaneHead=0;swimlaneBody=0;strokeColor=inherit;top=0;left=0;bottom=0;right=0;collapsible=0;dropTarget=0;fillColor=none;points=[[0,0.5],[1,0.5]];portConstraint=eastwest;fontSize=24;" vertex="1" parent="6KIEwpLQ4VhNKN5NyBQB-17">
          <mxGeometry y="40" width="970" height="40" as="geometry" />
        </mxCell>
        <mxCell id="6KIEwpLQ4VhNKN5NyBQB-23" value="&#39;admin/&#39;" style="shape=partialRectangle;connectable=0;strokeColor=inherit;overflow=hidden;fillColor=none;top=0;left=0;bottom=0;right=0;pointerEvents=1;fontSize=24;verticalAlign=middle;whiteSpace=wrap;html=1;fontFamily=Courier New;" vertex="1" parent="6KIEwpLQ4VhNKN5NyBQB-22">
          <mxGeometry width="433" height="40" as="geometry">
            <mxRectangle width="433" height="40" as="alternateBounds" />
          </mxGeometry>
        </mxCell>
        <mxCell id="6KIEwpLQ4VhNKN5NyBQB-25" value="&lt;div style=&quot;background-color:#ffffff;color:#080808&quot;&gt;&lt;div&gt;admin.site.urls&lt;/div&gt;&lt;/div&gt;" style="shape=partialRectangle;html=1;whiteSpace=wrap;connectable=0;strokeColor=inherit;overflow=hidden;fillColor=none;top=0;left=0;bottom=0;right=0;pointerEvents=1;fontSize=24;fontFamily=Courier New;" vertex="1" parent="6KIEwpLQ4VhNKN5NyBQB-22">
          <mxGeometry x="433" width="537" height="40" as="geometry">
            <mxRectangle width="537" height="40" as="alternateBounds" />
          </mxGeometry>
        </mxCell>
        <mxCell id="6KIEwpLQ4VhNKN5NyBQB-26" value="" style="shape=tableRow;horizontal=0;startSize=0;swimlaneHead=0;swimlaneBody=0;strokeColor=inherit;top=0;left=0;bottom=0;right=0;collapsible=0;dropTarget=0;fillColor=none;points=[[0,0.5],[1,0.5]];portConstraint=eastwest;fontSize=24;" vertex="1" parent="6KIEwpLQ4VhNKN5NyBQB-17">
          <mxGeometry y="80" width="970" height="40" as="geometry" />
        </mxCell>
        <mxCell id="6KIEwpLQ4VhNKN5NyBQB-27" value="&#39;&#39;" style="shape=partialRectangle;html=1;whiteSpace=wrap;connectable=0;strokeColor=inherit;overflow=hidden;fillColor=none;top=0;left=0;bottom=0;right=0;pointerEvents=1;fontSize=24;fontFamily=Courier New;" vertex="1" parent="6KIEwpLQ4VhNKN5NyBQB-26">
          <mxGeometry width="433" height="40" as="geometry">
            <mxRectangle width="433" height="40" as="alternateBounds" />
          </mxGeometry>
        </mxCell>
        <mxCell id="6KIEwpLQ4VhNKN5NyBQB-29" value="&lt;div style=&quot;background-color:#ffffff;color:#080808&quot;&gt;&lt;div&gt;views.recipes_list_view&lt;/div&gt;&lt;/div&gt;" style="shape=partialRectangle;html=1;whiteSpace=wrap;connectable=0;strokeColor=inherit;overflow=hidden;fillColor=none;top=0;left=0;bottom=0;right=0;pointerEvents=1;fontSize=24;fontFamily=Courier New;" vertex="1" parent="6KIEwpLQ4VhNKN5NyBQB-26">
          <mxGeometry x="433" width="537" height="40" as="geometry">
            <mxRectangle width="537" height="40" as="alternateBounds" />
          </mxGeometry>
        </mxCell>
        <mxCell id="6KIEwpLQ4VhNKN5NyBQB-30" style="shape=tableRow;horizontal=0;startSize=0;swimlaneHead=0;swimlaneBody=0;strokeColor=inherit;top=0;left=0;bottom=0;right=0;collapsible=0;dropTarget=0;fillColor=none;points=[[0,0.5],[1,0.5]];portConstraint=eastwest;fontSize=24;" vertex="1" parent="6KIEwpLQ4VhNKN5NyBQB-17">
          <mxGeometry y="120" width="970" height="40" as="geometry" />
        </mxCell>
        <mxCell id="6KIEwpLQ4VhNKN5NyBQB-31" value="&#39;recipes_list_view/&#39;" style="shape=partialRectangle;whiteSpace=wrap;connectable=0;strokeColor=inherit;overflow=hidden;fillColor=none;top=0;left=0;bottom=0;right=0;pointerEvents=1;fontSize=24;fontFamily=Courier New;" vertex="1" parent="6KIEwpLQ4VhNKN5NyBQB-30">
          <mxGeometry width="433" height="40" as="geometry">
            <mxRectangle width="433" height="40" as="alternateBounds" />
          </mxGeometry>
        </mxCell>
        <mxCell id="6KIEwpLQ4VhNKN5NyBQB-32" value="views.recipes_list_view" style="shape=partialRectangle;whiteSpace=wrap;connectable=0;strokeColor=inherit;overflow=hidden;fillColor=none;top=0;left=0;bottom=0;right=0;pointerEvents=1;fontSize=24;fontFamily=Courier New;" vertex="1" parent="6KIEwpLQ4VhNKN5NyBQB-30">
          <mxGeometry x="433" width="537" height="40" as="geometry">
            <mxRectangle width="537" height="40" as="alternateBounds" />
          </mxGeometry>
        </mxCell>
        <mxCell id="6KIEwpLQ4VhNKN5NyBQB-33" style="shape=tableRow;horizontal=0;startSize=0;swimlaneHead=0;swimlaneBody=0;strokeColor=inherit;top=0;left=0;bottom=0;right=0;collapsible=0;dropTarget=0;fillColor=none;points=[[0,0.5],[1,0.5]];portConstraint=eastwest;fontSize=24;" vertex="1" parent="6KIEwpLQ4VhNKN5NyBQB-17">
          <mxGeometry y="160" width="970" height="40" as="geometry" />
        </mxCell>
        <mxCell id="6KIEwpLQ4VhNKN5NyBQB-34" value="&#39;favorites/&#39;" style="shape=partialRectangle;whiteSpace=wrap;connectable=0;strokeColor=inherit;overflow=hidden;fillColor=none;top=0;left=0;bottom=0;right=0;pointerEvents=1;fontSize=24;fontFamily=Courier New;" vertex="1" parent="6KIEwpLQ4VhNKN5NyBQB-33">
          <mxGeometry width="433" height="40" as="geometry">
            <mxRectangle width="433" height="40" as="alternateBounds" />
          </mxGeometry>
        </mxCell>
        <mxCell id="6KIEwpLQ4VhNKN5NyBQB-35" value="include(&#39;models.favorites.urls&#39;)" style="shape=partialRectangle;whiteSpace=wrap;connectable=0;strokeColor=inherit;overflow=hidden;fillColor=none;top=0;left=0;bottom=0;right=0;pointerEvents=1;fontSize=24;fontFamily=Courier New;" vertex="1" parent="6KIEwpLQ4VhNKN5NyBQB-33">
          <mxGeometry x="433" width="537" height="40" as="geometry">
            <mxRectangle width="537" height="40" as="alternateBounds" />
          </mxGeometry>
        </mxCell>
        <mxCell id="6KIEwpLQ4VhNKN5NyBQB-55" style="shape=tableRow;horizontal=0;startSize=0;swimlaneHead=0;swimlaneBody=0;strokeColor=inherit;top=0;left=0;bottom=0;right=0;collapsible=0;dropTarget=0;fillColor=none;points=[[0,0.5],[1,0.5]];portConstraint=eastwest;fontSize=24;" vertex="1" parent="6KIEwpLQ4VhNKN5NyBQB-17">
          <mxGeometry y="200" width="970" height="40" as="geometry" />
        </mxCell>
        <mxCell id="6KIEwpLQ4VhNKN5NyBQB-56" value="&#39;register/&#39;" style="shape=partialRectangle;whiteSpace=wrap;connectable=0;strokeColor=inherit;overflow=hidden;fillColor=none;top=0;left=0;bottom=0;right=0;pointerEvents=1;fontSize=24;fontFamily=Courier New;" vertex="1" parent="6KIEwpLQ4VhNKN5NyBQB-55">
          <mxGeometry width="433" height="40" as="geometry">
            <mxRectangle width="433" height="40" as="alternateBounds" />
          </mxGeometry>
        </mxCell>
        <mxCell id="6KIEwpLQ4VhNKN5NyBQB-57" value="views.registration_view" style="shape=partialRectangle;whiteSpace=wrap;connectable=0;strokeColor=inherit;overflow=hidden;fillColor=none;top=0;left=0;bottom=0;right=0;pointerEvents=1;fontSize=24;fontFamily=Courier New;" vertex="1" parent="6KIEwpLQ4VhNKN5NyBQB-55">
          <mxGeometry x="433" width="537" height="40" as="geometry">
            <mxRectangle width="537" height="40" as="alternateBounds" />
          </mxGeometry>
        </mxCell>
        <mxCell id="6KIEwpLQ4VhNKN5NyBQB-58" style="shape=tableRow;horizontal=0;startSize=0;swimlaneHead=0;swimlaneBody=0;strokeColor=inherit;top=0;left=0;bottom=0;right=0;collapsible=0;dropTarget=0;fillColor=none;points=[[0,0.5],[1,0.5]];portConstraint=eastwest;fontSize=24;" vertex="1" parent="6KIEwpLQ4VhNKN5NyBQB-17">
          <mxGeometry y="240" width="970" height="40" as="geometry" />
        </mxCell>
        <mxCell id="6KIEwpLQ4VhNKN5NyBQB-59" value="&#39;authorization/&#39;" style="shape=partialRectangle;whiteSpace=wrap;connectable=0;strokeColor=inherit;overflow=hidden;fillColor=none;top=0;left=0;bottom=0;right=0;pointerEvents=1;fontSize=24;fontFamily=Courier New;" vertex="1" parent="6KIEwpLQ4VhNKN5NyBQB-58">
          <mxGeometry width="433" height="40" as="geometry">
            <mxRectangle width="433" height="40" as="alternateBounds" />
          </mxGeometry>
        </mxCell>
        <mxCell id="6KIEwpLQ4VhNKN5NyBQB-60" value="views.authorization_view" style="shape=partialRectangle;whiteSpace=wrap;connectable=0;strokeColor=inherit;overflow=hidden;fillColor=none;top=0;left=0;bottom=0;right=0;pointerEvents=1;fontSize=24;fontFamily=Courier New;" vertex="1" parent="6KIEwpLQ4VhNKN5NyBQB-58">
          <mxGeometry x="433" width="537" height="40" as="geometry">
            <mxRectangle width="537" height="40" as="alternateBounds" />
          </mxGeometry>
        </mxCell>
        <mxCell id="6KIEwpLQ4VhNKN5NyBQB-61" style="shape=tableRow;horizontal=0;startSize=0;swimlaneHead=0;swimlaneBody=0;strokeColor=inherit;top=0;left=0;bottom=0;right=0;collapsible=0;dropTarget=0;fillColor=none;points=[[0,0.5],[1,0.5]];portConstraint=eastwest;fontSize=24;" vertex="1" parent="6KIEwpLQ4VhNKN5NyBQB-17">
          <mxGeometry y="280" width="970" height="40" as="geometry" />
        </mxCell>
        <mxCell id="6KIEwpLQ4VhNKN5NyBQB-62" value="&#39;logout/&#39;" style="shape=partialRectangle;whiteSpace=wrap;connectable=0;strokeColor=inherit;overflow=hidden;fillColor=none;top=0;left=0;bottom=0;right=0;pointerEvents=1;fontSize=24;fontFamily=Courier New;" vertex="1" parent="6KIEwpLQ4VhNKN5NyBQB-61">
          <mxGeometry width="433" height="40" as="geometry">
            <mxRectangle width="433" height="40" as="alternateBounds" />
          </mxGeometry>
        </mxCell>
        <mxCell id="6KIEwpLQ4VhNKN5NyBQB-63" value="LogoutView.as_view(next_page=&#39;/&#39;)" style="shape=partialRectangle;whiteSpace=wrap;connectable=0;strokeColor=inherit;overflow=hidden;fillColor=none;top=0;left=0;bottom=0;right=0;pointerEvents=1;fontSize=24;fontFamily=Courier New;" vertex="1" parent="6KIEwpLQ4VhNKN5NyBQB-61">
          <mxGeometry x="433" width="537" height="40" as="geometry">
            <mxRectangle width="537" height="40" as="alternateBounds" />
          </mxGeometry>
        </mxCell>
        <mxCell id="6KIEwpLQ4VhNKN5NyBQB-64" style="shape=tableRow;horizontal=0;startSize=0;swimlaneHead=0;swimlaneBody=0;strokeColor=inherit;top=0;left=0;bottom=0;right=0;collapsible=0;dropTarget=0;fillColor=none;points=[[0,0.5],[1,0.5]];portConstraint=eastwest;fontSize=24;" vertex="1" parent="6KIEwpLQ4VhNKN5NyBQB-17">
          <mxGeometry y="320" width="970" height="40" as="geometry" />
        </mxCell>
        <mxCell id="6KIEwpLQ4VhNKN5NyBQB-65" value="&#39;profile/&lt;int:user_id&gt;/&#39;" style="shape=partialRectangle;whiteSpace=wrap;connectable=0;strokeColor=inherit;overflow=hidden;fillColor=none;top=0;left=0;bottom=0;right=0;pointerEvents=1;fontSize=24;fontFamily=Courier New;" vertex="1" parent="6KIEwpLQ4VhNKN5NyBQB-64">
          <mxGeometry width="433" height="40" as="geometry">
            <mxRectangle width="433" height="40" as="alternateBounds" />
          </mxGeometry>
        </mxCell>
        <mxCell id="6KIEwpLQ4VhNKN5NyBQB-66" value="views.profile_view" style="shape=partialRectangle;whiteSpace=wrap;connectable=0;strokeColor=inherit;overflow=hidden;fillColor=none;top=0;left=0;bottom=0;right=0;pointerEvents=1;fontSize=24;fontFamily=Courier New;" vertex="1" parent="6KIEwpLQ4VhNKN5NyBQB-64">
          <mxGeometry x="433" width="537" height="40" as="geometry">
            <mxRectangle width="537" height="40" as="alternateBounds" />
          </mxGeometry>
        </mxCell>
        <mxCell id="6KIEwpLQ4VhNKN5NyBQB-67" style="shape=tableRow;horizontal=0;startSize=0;swimlaneHead=0;swimlaneBody=0;strokeColor=inherit;top=0;left=0;bottom=0;right=0;collapsible=0;dropTarget=0;fillColor=none;points=[[0,0.5],[1,0.5]];portConstraint=eastwest;fontSize=24;" vertex="1" parent="6KIEwpLQ4VhNKN5NyBQB-17">
          <mxGeometry y="360" width="970" height="40" as="geometry" />
        </mxCell>
        <mxCell id="6KIEwpLQ4VhNKN5NyBQB-68" value="&#39;profile/edit/&#39;" style="shape=partialRectangle;whiteSpace=wrap;connectable=0;strokeColor=inherit;overflow=hidden;fillColor=none;top=0;left=0;bottom=0;right=0;pointerEvents=1;fontSize=24;fontFamily=Courier New;" vertex="1" parent="6KIEwpLQ4VhNKN5NyBQB-67">
          <mxGeometry width="433" height="40" as="geometry">
            <mxRectangle width="433" height="40" as="alternateBounds" />
          </mxGeometry>
        </mxCell>
        <mxCell id="6KIEwpLQ4VhNKN5NyBQB-69" value="views.edit_profile" style="shape=partialRectangle;whiteSpace=wrap;connectable=0;strokeColor=inherit;overflow=hidden;fillColor=none;top=0;left=0;bottom=0;right=0;pointerEvents=1;fontSize=24;fontFamily=Courier New;" vertex="1" parent="6KIEwpLQ4VhNKN5NyBQB-67">
          <mxGeometry x="433" width="537" height="40" as="geometry">
            <mxRectangle width="537" height="40" as="alternateBounds" />
          </mxGeometry>
        </mxCell>
        <mxCell id="6KIEwpLQ4VhNKN5NyBQB-70" style="shape=tableRow;horizontal=0;startSize=0;swimlaneHead=0;swimlaneBody=0;strokeColor=inherit;top=0;left=0;bottom=0;right=0;collapsible=0;dropTarget=0;fillColor=none;points=[[0,0.5],[1,0.5]];portConstraint=eastwest;fontSize=24;" vertex="1" parent="6KIEwpLQ4VhNKN5NyBQB-17">
          <mxGeometry y="400" width="970" height="40" as="geometry" />
        </mxCell>
        <mxCell id="6KIEwpLQ4VhNKN5NyBQB-71" value="&#39;confirm_delete_account/&#39;" style="shape=partialRectangle;whiteSpace=wrap;connectable=0;strokeColor=inherit;overflow=hidden;fillColor=none;top=0;left=0;bottom=0;right=0;pointerEvents=1;fontSize=24;fontFamily=Courier New;" vertex="1" parent="6KIEwpLQ4VhNKN5NyBQB-70">
          <mxGeometry width="433" height="40" as="geometry">
            <mxRectangle width="433" height="40" as="alternateBounds" />
          </mxGeometry>
        </mxCell>
        <mxCell id="6KIEwpLQ4VhNKN5NyBQB-72" value="views.confirm_delete_account" style="shape=partialRectangle;whiteSpace=wrap;connectable=0;strokeColor=inherit;overflow=hidden;fillColor=none;top=0;left=0;bottom=0;right=0;pointerEvents=1;fontSize=24;fontFamily=Courier New;" vertex="1" parent="6KIEwpLQ4VhNKN5NyBQB-70">
          <mxGeometry x="433" width="537" height="40" as="geometry">
            <mxRectangle width="537" height="40" as="alternateBounds" />
          </mxGeometry>
        </mxCell>
        <mxCell id="6KIEwpLQ4VhNKN5NyBQB-73" style="shape=tableRow;horizontal=0;startSize=0;swimlaneHead=0;swimlaneBody=0;strokeColor=inherit;top=0;left=0;bottom=0;right=0;collapsible=0;dropTarget=0;fillColor=none;points=[[0,0.5],[1,0.5]];portConstraint=eastwest;fontSize=24;" vertex="1" parent="6KIEwpLQ4VhNKN5NyBQB-17">
          <mxGeometry y="440" width="970" height="40" as="geometry" />
        </mxCell>
        <mxCell id="6KIEwpLQ4VhNKN5NyBQB-74" value="&#39;users/&#39;" style="shape=partialRectangle;whiteSpace=wrap;connectable=0;strokeColor=inherit;overflow=hidden;fillColor=none;top=0;left=0;bottom=0;right=0;pointerEvents=1;fontSize=24;fontFamily=Courier New;" vertex="1" parent="6KIEwpLQ4VhNKN5NyBQB-73">
          <mxGeometry width="433" height="40" as="geometry">
            <mxRectangle width="433" height="40" as="alternateBounds" />
          </mxGeometry>
        </mxCell>
        <mxCell id="6KIEwpLQ4VhNKN5NyBQB-75" value="include(&#39;models.users.urls&#39;)" style="shape=partialRectangle;whiteSpace=wrap;connectable=0;strokeColor=inherit;overflow=hidden;fillColor=none;top=0;left=0;bottom=0;right=0;pointerEvents=1;fontSize=24;fontFamily=Courier New;" vertex="1" parent="6KIEwpLQ4VhNKN5NyBQB-73">
          <mxGeometry x="433" width="537" height="40" as="geometry">
            <mxRectangle width="537" height="40" as="alternateBounds" />
          </mxGeometry>
        </mxCell>
        <mxCell id="6KIEwpLQ4VhNKN5NyBQB-91" style="shape=tableRow;horizontal=0;startSize=0;swimlaneHead=0;swimlaneBody=0;strokeColor=inherit;top=0;left=0;bottom=0;right=0;collapsible=0;dropTarget=0;fillColor=none;points=[[0,0.5],[1,0.5]];portConstraint=eastwest;fontSize=24;" vertex="1" parent="6KIEwpLQ4VhNKN5NyBQB-17">
          <mxGeometry y="480" width="970" height="40" as="geometry" />
        </mxCell>
        <mxCell id="6KIEwpLQ4VhNKN5NyBQB-92" value="&#39;recipes/&lt;int:recipe_id&gt;/&#39;" style="shape=partialRectangle;whiteSpace=wrap;connectable=0;strokeColor=inherit;overflow=hidden;fillColor=none;top=0;left=0;bottom=0;right=0;pointerEvents=1;fontSize=24;fontFamily=Courier New;" vertex="1" parent="6KIEwpLQ4VhNKN5NyBQB-91">
          <mxGeometry width="433" height="40" as="geometry">
            <mxRectangle width="433" height="40" as="alternateBounds" />
          </mxGeometry>
        </mxCell>
        <mxCell id="6KIEwpLQ4VhNKN5NyBQB-93" value="views.recipe_view" style="shape=partialRectangle;whiteSpace=wrap;connectable=0;strokeColor=inherit;overflow=hidden;fillColor=none;top=0;left=0;bottom=0;right=0;pointerEvents=1;fontSize=24;fontFamily=Courier New;" vertex="1" parent="6KIEwpLQ4VhNKN5NyBQB-91">
          <mxGeometry x="433" width="537" height="40" as="geometry">
            <mxRectangle width="537" height="40" as="alternateBounds" />
          </mxGeometry>
        </mxCell>
        <mxCell id="6KIEwpLQ4VhNKN5NyBQB-94" style="shape=tableRow;horizontal=0;startSize=0;swimlaneHead=0;swimlaneBody=0;strokeColor=inherit;top=0;left=0;bottom=0;right=0;collapsible=0;dropTarget=0;fillColor=none;points=[[0,0.5],[1,0.5]];portConstraint=eastwest;fontSize=24;" vertex="1" parent="6KIEwpLQ4VhNKN5NyBQB-17">
          <mxGeometry y="520" width="970" height="40" as="geometry" />
        </mxCell>
        <mxCell id="6KIEwpLQ4VhNKN5NyBQB-95" value="&#39;user/&lt;int:user_id&gt;/recipes/&#39;" style="shape=partialRectangle;whiteSpace=wrap;connectable=0;strokeColor=inherit;overflow=hidden;fillColor=none;top=0;left=0;bottom=0;right=0;pointerEvents=1;fontSize=24;fontFamily=Courier New;" vertex="1" parent="6KIEwpLQ4VhNKN5NyBQB-94">
          <mxGeometry width="433" height="40" as="geometry">
            <mxRectangle width="433" height="40" as="alternateBounds" />
          </mxGeometry>
        </mxCell>
        <mxCell id="6KIEwpLQ4VhNKN5NyBQB-96" value="views.recipes_list_view" style="shape=partialRectangle;whiteSpace=wrap;connectable=0;strokeColor=inherit;overflow=hidden;fillColor=none;top=0;left=0;bottom=0;right=0;pointerEvents=1;fontSize=24;fontFamily=Courier New;" vertex="1" parent="6KIEwpLQ4VhNKN5NyBQB-94">
          <mxGeometry x="433" width="537" height="40" as="geometry">
            <mxRectangle width="537" height="40" as="alternateBounds" />
          </mxGeometry>
        </mxCell>
        <mxCell id="6KIEwpLQ4VhNKN5NyBQB-97" style="shape=tableRow;horizontal=0;startSize=0;swimlaneHead=0;swimlaneBody=0;strokeColor=inherit;top=0;left=0;bottom=0;right=0;collapsible=0;dropTarget=0;fillColor=none;points=[[0,0.5],[1,0.5]];portConstraint=eastwest;fontSize=24;" vertex="1" parent="6KIEwpLQ4VhNKN5NyBQB-17">
          <mxGeometry y="560" width="970" height="40" as="geometry" />
        </mxCell>
        <mxCell id="6KIEwpLQ4VhNKN5NyBQB-98" value="&#39;create_recipe/&#39;" style="shape=partialRectangle;whiteSpace=wrap;connectable=0;strokeColor=inherit;overflow=hidden;fillColor=none;top=0;left=0;bottom=0;right=0;pointerEvents=1;fontSize=24;fontFamily=Courier New;" vertex="1" parent="6KIEwpLQ4VhNKN5NyBQB-97">
          <mxGeometry width="433" height="40" as="geometry">
            <mxRectangle width="433" height="40" as="alternateBounds" />
          </mxGeometry>
        </mxCell>
        <mxCell id="6KIEwpLQ4VhNKN5NyBQB-99" value="views.create_recipe" style="shape=partialRectangle;whiteSpace=wrap;connectable=0;strokeColor=inherit;overflow=hidden;fillColor=none;top=0;left=0;bottom=0;right=0;pointerEvents=1;fontSize=24;fontFamily=Courier New;" vertex="1" parent="6KIEwpLQ4VhNKN5NyBQB-97">
          <mxGeometry x="433" width="537" height="40" as="geometry">
            <mxRectangle width="537" height="40" as="alternateBounds" />
          </mxGeometry>
        </mxCell>
        <mxCell id="6KIEwpLQ4VhNKN5NyBQB-100" style="shape=tableRow;horizontal=0;startSize=0;swimlaneHead=0;swimlaneBody=0;strokeColor=inherit;top=0;left=0;bottom=0;right=0;collapsible=0;dropTarget=0;fillColor=none;points=[[0,0.5],[1,0.5]];portConstraint=eastwest;fontSize=24;" vertex="1" parent="6KIEwpLQ4VhNKN5NyBQB-17">
          <mxGeometry y="600" width="970" height="40" as="geometry" />
        </mxCell>
        <mxCell id="6KIEwpLQ4VhNKN5NyBQB-101" value="&#39;recipes/&#39;" style="shape=partialRectangle;whiteSpace=wrap;connectable=0;strokeColor=inherit;overflow=hidden;fillColor=none;top=0;left=0;bottom=0;right=0;pointerEvents=1;fontSize=24;fontFamily=Courier New;" vertex="1" parent="6KIEwpLQ4VhNKN5NyBQB-100">
          <mxGeometry width="433" height="40" as="geometry">
            <mxRectangle width="433" height="40" as="alternateBounds" />
          </mxGeometry>
        </mxCell>
        <mxCell id="6KIEwpLQ4VhNKN5NyBQB-102" value="include(&#39;models.recipes.urls&#39;)" style="shape=partialRectangle;whiteSpace=wrap;connectable=0;strokeColor=inherit;overflow=hidden;fillColor=none;top=0;left=0;bottom=0;right=0;pointerEvents=1;fontSize=24;fontFamily=Courier New;" vertex="1" parent="6KIEwpLQ4VhNKN5NyBQB-100">
          <mxGeometry x="433" width="537" height="40" as="geometry">
            <mxRectangle width="537" height="40" as="alternateBounds" />
          </mxGeometry>
        </mxCell>
        <mxCell id="6KIEwpLQ4VhNKN5NyBQB-112" style="shape=tableRow;horizontal=0;startSize=0;swimlaneHead=0;swimlaneBody=0;strokeColor=inherit;top=0;left=0;bottom=0;right=0;collapsible=0;dropTarget=0;fillColor=none;points=[[0,0.5],[1,0.5]];portConstraint=eastwest;fontSize=24;" vertex="1" parent="6KIEwpLQ4VhNKN5NyBQB-17">
          <mxGeometry y="640" width="970" height="40" as="geometry" />
        </mxCell>
        <mxCell id="6KIEwpLQ4VhNKN5NyBQB-113" value="&#39;ratings/&#39;" style="shape=partialRectangle;whiteSpace=wrap;connectable=0;strokeColor=inherit;overflow=hidden;fillColor=none;top=0;left=0;bottom=0;right=0;pointerEvents=1;fontSize=24;fontFamily=Courier New;" vertex="1" parent="6KIEwpLQ4VhNKN5NyBQB-112">
          <mxGeometry width="433" height="40" as="geometry">
            <mxRectangle width="433" height="40" as="alternateBounds" />
          </mxGeometry>
        </mxCell>
        <mxCell id="6KIEwpLQ4VhNKN5NyBQB-114" value="include(&#39;models.ratings.urls&#39;)" style="shape=partialRectangle;whiteSpace=wrap;connectable=0;strokeColor=inherit;overflow=hidden;fillColor=none;top=0;left=0;bottom=0;right=0;pointerEvents=1;fontSize=24;fontFamily=Courier New;" vertex="1" parent="6KIEwpLQ4VhNKN5NyBQB-112">
          <mxGeometry x="433" width="537" height="40" as="geometry">
            <mxRectangle width="537" height="40" as="alternateBounds" />
          </mxGeometry>
        </mxCell>
        <mxCell id="6KIEwpLQ4VhNKN5NyBQB-138" style="shape=tableRow;horizontal=0;startSize=0;swimlaneHead=0;swimlaneBody=0;strokeColor=inherit;top=0;left=0;bottom=0;right=0;collapsible=0;dropTarget=0;fillColor=none;points=[[0,0.5],[1,0.5]];portConstraint=eastwest;fontSize=24;" vertex="1" parent="6KIEwpLQ4VhNKN5NyBQB-17">
          <mxGeometry y="680" width="970" height="40" as="geometry" />
        </mxCell>
        <mxCell id="6KIEwpLQ4VhNKN5NyBQB-139" value="&#39;comments/&#39;" style="shape=partialRectangle;whiteSpace=wrap;connectable=0;strokeColor=inherit;overflow=hidden;fillColor=none;top=0;left=0;bottom=0;right=0;pointerEvents=1;fontSize=24;fontFamily=Courier New;" vertex="1" parent="6KIEwpLQ4VhNKN5NyBQB-138">
          <mxGeometry width="433" height="40" as="geometry">
            <mxRectangle width="433" height="40" as="alternateBounds" />
          </mxGeometry>
        </mxCell>
        <mxCell id="6KIEwpLQ4VhNKN5NyBQB-140" value="include(&#39;models.comments.urls&#39;)" style="shape=partialRectangle;whiteSpace=wrap;connectable=0;strokeColor=inherit;overflow=hidden;fillColor=none;top=0;left=0;bottom=0;right=0;pointerEvents=1;fontSize=24;fontFamily=Courier New;" vertex="1" parent="6KIEwpLQ4VhNKN5NyBQB-138">
          <mxGeometry x="433" width="537" height="40" as="geometry">
            <mxRectangle width="537" height="40" as="alternateBounds" />
          </mxGeometry>
        </mxCell>
        <mxCell id="6KIEwpLQ4VhNKN5NyBQB-165" style="shape=tableRow;horizontal=0;startSize=0;swimlaneHead=0;swimlaneBody=0;strokeColor=inherit;top=0;left=0;bottom=0;right=0;collapsible=0;dropTarget=0;fillColor=none;points=[[0,0.5],[1,0.5]];portConstraint=eastwest;fontSize=24;" vertex="1" parent="6KIEwpLQ4VhNKN5NyBQB-17">
          <mxGeometry y="720" width="970" height="40" as="geometry" />
        </mxCell>
        <mxCell id="6KIEwpLQ4VhNKN5NyBQB-166" value="&#39;radio_player/&#39;" style="shape=partialRectangle;whiteSpace=wrap;connectable=0;strokeColor=inherit;overflow=hidden;fillColor=none;top=0;left=0;bottom=0;right=0;pointerEvents=1;fontSize=24;fontFamily=Courier New;" vertex="1" parent="6KIEwpLQ4VhNKN5NyBQB-165">
          <mxGeometry width="433" height="40" as="geometry">
            <mxRectangle width="433" height="40" as="alternateBounds" />
          </mxGeometry>
        </mxCell>
        <mxCell id="6KIEwpLQ4VhNKN5NyBQB-167" value="views.radio_player" style="shape=partialRectangle;whiteSpace=wrap;connectable=0;strokeColor=inherit;overflow=hidden;fillColor=none;top=0;left=0;bottom=0;right=0;pointerEvents=1;fontSize=24;fontFamily=Courier New;" vertex="1" parent="6KIEwpLQ4VhNKN5NyBQB-165">
          <mxGeometry x="433" width="537" height="40" as="geometry">
            <mxRectangle width="537" height="40" as="alternateBounds" />
          </mxGeometry>
        </mxCell>
        <mxCell id="6KIEwpLQ4VhNKN5NyBQB-36" value="" style="shape=table;startSize=0;container=1;collapsible=0;childLayout=tableLayout;fontSize=24;align=center;verticalAlign=middle;fontFamily=Courier New;" vertex="1" parent="1">
          <mxGeometry x="1128" y="90" width="870" height="120" as="geometry" />
        </mxCell>
        <mxCell id="6KIEwpLQ4VhNKN5NyBQB-37" value="" style="shape=tableRow;horizontal=0;startSize=0;swimlaneHead=0;swimlaneBody=0;strokeColor=inherit;top=0;left=0;bottom=0;right=0;collapsible=0;dropTarget=0;fillColor=none;points=[[0,0.5],[1,0.5]];portConstraint=eastwest;fontSize=24;" vertex="1" parent="6KIEwpLQ4VhNKN5NyBQB-36">
          <mxGeometry width="870" height="40" as="geometry" />
        </mxCell>
        <mxCell id="6KIEwpLQ4VhNKN5NyBQB-38" value="URL" style="shape=partialRectangle;whiteSpace=wrap;connectable=0;strokeColor=inherit;overflow=hidden;fillColor=none;top=0;left=0;bottom=0;right=0;pointerEvents=1;fontSize=24;fontStyle=1" vertex="1" parent="6KIEwpLQ4VhNKN5NyBQB-37">
          <mxGeometry width="500" height="40" as="geometry">
            <mxRectangle width="500" height="40" as="alternateBounds" />
          </mxGeometry>
        </mxCell>
        <mxCell id="6KIEwpLQ4VhNKN5NyBQB-39" value="View" style="shape=partialRectangle;whiteSpace=wrap;connectable=0;strokeColor=inherit;overflow=hidden;fillColor=none;top=0;left=0;bottom=0;right=0;pointerEvents=1;fontSize=24;fontStyle=1" vertex="1" parent="6KIEwpLQ4VhNKN5NyBQB-37">
          <mxGeometry x="500" width="370" height="40" as="geometry">
            <mxRectangle width="370" height="40" as="alternateBounds" />
          </mxGeometry>
        </mxCell>
        <mxCell id="6KIEwpLQ4VhNKN5NyBQB-40" value="" style="shape=tableRow;horizontal=0;startSize=0;swimlaneHead=0;swimlaneBody=0;strokeColor=inherit;top=0;left=0;bottom=0;right=0;collapsible=0;dropTarget=0;fillColor=none;points=[[0,0.5],[1,0.5]];portConstraint=eastwest;fontSize=24;" vertex="1" parent="6KIEwpLQ4VhNKN5NyBQB-36">
          <mxGeometry y="40" width="870" height="40" as="geometry" />
        </mxCell>
        <mxCell id="6KIEwpLQ4VhNKN5NyBQB-41" value="&#39;favorites/&#39;" style="shape=partialRectangle;connectable=0;strokeColor=inherit;overflow=hidden;fillColor=none;top=0;left=0;bottom=0;right=0;pointerEvents=1;fontSize=24;verticalAlign=middle;whiteSpace=wrap;fontFamily=Courier New;" vertex="1" parent="6KIEwpLQ4VhNKN5NyBQB-40">
          <mxGeometry width="500" height="40" as="geometry">
            <mxRectangle width="500" height="40" as="alternateBounds" />
          </mxGeometry>
        </mxCell>
        <mxCell id="6KIEwpLQ4VhNKN5NyBQB-42" value="views.favorites_view" style="shape=partialRectangle;whiteSpace=wrap;connectable=0;strokeColor=inherit;overflow=hidden;fillColor=none;top=0;left=0;bottom=0;right=0;pointerEvents=1;fontSize=24;fontFamily=Courier New;" vertex="1" parent="6KIEwpLQ4VhNKN5NyBQB-40">
          <mxGeometry x="500" width="370" height="40" as="geometry">
            <mxRectangle width="370" height="40" as="alternateBounds" />
          </mxGeometry>
        </mxCell>
        <mxCell id="6KIEwpLQ4VhNKN5NyBQB-43" value="" style="shape=tableRow;horizontal=0;startSize=0;swimlaneHead=0;swimlaneBody=0;strokeColor=inherit;top=0;left=0;bottom=0;right=0;collapsible=0;dropTarget=0;fillColor=none;points=[[0,0.5],[1,0.5]];portConstraint=eastwest;fontSize=24;" vertex="1" parent="6KIEwpLQ4VhNKN5NyBQB-36">
          <mxGeometry y="80" width="870" height="40" as="geometry" />
        </mxCell>
        <mxCell id="6KIEwpLQ4VhNKN5NyBQB-44" value="&#39;toggle_favorite/&lt;int:recipe_id&gt;/&#39;" style="shape=partialRectangle;whiteSpace=wrap;connectable=0;strokeColor=inherit;overflow=hidden;fillColor=none;top=0;left=0;bottom=0;right=0;pointerEvents=1;fontSize=24;fontFamily=Courier New;" vertex="1" parent="6KIEwpLQ4VhNKN5NyBQB-43">
          <mxGeometry width="500" height="40" as="geometry">
            <mxRectangle width="500" height="40" as="alternateBounds" />
          </mxGeometry>
        </mxCell>
        <mxCell id="6KIEwpLQ4VhNKN5NyBQB-45" value="views.toggle_favorite" style="shape=partialRectangle;whiteSpace=wrap;connectable=0;strokeColor=inherit;overflow=hidden;fillColor=none;top=0;left=0;bottom=0;right=0;pointerEvents=1;fontSize=24;fontFamily=Courier New;" vertex="1" parent="6KIEwpLQ4VhNKN5NyBQB-43">
          <mxGeometry x="500" width="370" height="40" as="geometry">
            <mxRectangle width="370" height="40" as="alternateBounds" />
          </mxGeometry>
        </mxCell>
        <mxCell id="6KIEwpLQ4VhNKN5NyBQB-52" value="&lt;font style=&quot;font-size: 40px;&quot;&gt;Main URLs&lt;/font&gt;" style="text;html=1;align=center;verticalAlign=middle;resizable=0;points=[];autosize=1;strokeColor=none;fillColor=none;" vertex="1" parent="1">
          <mxGeometry x="473" y="20" width="220" height="60" as="geometry" />
        </mxCell>
        <mxCell id="6KIEwpLQ4VhNKN5NyBQB-53" value="" style="endArrow=classic;html=1;rounded=0;exitX=1;exitY=0.5;exitDx=0;exitDy=0;strokeWidth=3;entryX=0;entryY=0.5;entryDx=0;entryDy=0;" edge="1" parent="1" source="6KIEwpLQ4VhNKN5NyBQB-33" target="6KIEwpLQ4VhNKN5NyBQB-37">
          <mxGeometry width="50" height="50" relative="1" as="geometry">
            <mxPoint x="1168" y="260" as="sourcePoint" />
            <mxPoint x="1120" y="170" as="targetPoint" />
            <Array as="points">
              <mxPoint x="1040" y="260" />
              <mxPoint x="1040" y="110" />
            </Array>
          </mxGeometry>
        </mxCell>
        <mxCell id="6KIEwpLQ4VhNKN5NyBQB-54" value="&lt;font style=&quot;font-size: 40px;&quot;&gt;Favorites &lt;font&gt;URLs&lt;/font&gt;&lt;/font&gt;" style="text;whiteSpace=wrap;html=1;align=center;" vertex="1" parent="1">
          <mxGeometry x="1378" y="30" width="370" height="60" as="geometry" />
        </mxCell>
        <mxCell id="6KIEwpLQ4VhNKN5NyBQB-76" value="" style="shape=table;startSize=0;container=1;collapsible=0;childLayout=tableLayout;fontSize=24;align=center;verticalAlign=middle;fontFamily=Courier New;" vertex="1" parent="1">
          <mxGeometry x="1126" y="280" width="870" height="80" as="geometry" />
        </mxCell>
        <mxCell id="6KIEwpLQ4VhNKN5NyBQB-77" value="" style="shape=tableRow;horizontal=0;startSize=0;swimlaneHead=0;swimlaneBody=0;strokeColor=inherit;top=0;left=0;bottom=0;right=0;collapsible=0;dropTarget=0;fillColor=none;points=[[0,0.5],[1,0.5]];portConstraint=eastwest;fontSize=24;" vertex="1" parent="6KIEwpLQ4VhNKN5NyBQB-76">
          <mxGeometry width="870" height="40" as="geometry" />
        </mxCell>
        <mxCell id="6KIEwpLQ4VhNKN5NyBQB-78" value="URL" style="shape=partialRectangle;whiteSpace=wrap;connectable=0;strokeColor=inherit;overflow=hidden;fillColor=none;top=0;left=0;bottom=0;right=0;pointerEvents=1;fontSize=24;fontStyle=1" vertex="1" parent="6KIEwpLQ4VhNKN5NyBQB-77">
          <mxGeometry width="500" height="40" as="geometry">
            <mxRectangle width="500" height="40" as="alternateBounds" />
          </mxGeometry>
        </mxCell>
        <mxCell id="6KIEwpLQ4VhNKN5NyBQB-79" value="View" style="shape=partialRectangle;whiteSpace=wrap;connectable=0;strokeColor=inherit;overflow=hidden;fillColor=none;top=0;left=0;bottom=0;right=0;pointerEvents=1;fontSize=24;fontStyle=1" vertex="1" parent="6KIEwpLQ4VhNKN5NyBQB-77">
          <mxGeometry x="500" width="370" height="40" as="geometry">
            <mxRectangle width="370" height="40" as="alternateBounds" />
          </mxGeometry>
        </mxCell>
        <mxCell id="6KIEwpLQ4VhNKN5NyBQB-80" value="" style="shape=tableRow;horizontal=0;startSize=0;swimlaneHead=0;swimlaneBody=0;strokeColor=inherit;top=0;left=0;bottom=0;right=0;collapsible=0;dropTarget=0;fillColor=none;points=[[0,0.5],[1,0.5]];portConstraint=eastwest;fontSize=24;" vertex="1" parent="6KIEwpLQ4VhNKN5NyBQB-76">
          <mxGeometry y="40" width="870" height="40" as="geometry" />
        </mxCell>
        <mxCell id="6KIEwpLQ4VhNKN5NyBQB-81" value="&#39;delete_account/&#39;" style="shape=partialRectangle;connectable=0;strokeColor=inherit;overflow=hidden;fillColor=none;top=0;left=0;bottom=0;right=0;pointerEvents=1;fontSize=24;verticalAlign=middle;whiteSpace=wrap;fontFamily=Courier New;" vertex="1" parent="6KIEwpLQ4VhNKN5NyBQB-80">
          <mxGeometry width="500" height="40" as="geometry">
            <mxRectangle width="500" height="40" as="alternateBounds" />
          </mxGeometry>
        </mxCell>
        <mxCell id="6KIEwpLQ4VhNKN5NyBQB-82" value="views.delete_account" style="shape=partialRectangle;whiteSpace=wrap;connectable=0;strokeColor=inherit;overflow=hidden;fillColor=none;top=0;left=0;bottom=0;right=0;pointerEvents=1;fontSize=24;fontFamily=Courier New;" vertex="1" parent="6KIEwpLQ4VhNKN5NyBQB-80">
          <mxGeometry x="500" width="370" height="40" as="geometry">
            <mxRectangle width="370" height="40" as="alternateBounds" />
          </mxGeometry>
        </mxCell>
        <mxCell id="6KIEwpLQ4VhNKN5NyBQB-86" value="" style="endArrow=classic;html=1;rounded=0;strokeWidth=3;entryX=0;entryY=0.5;entryDx=0;entryDy=0;" edge="1" parent="1" target="6KIEwpLQ4VhNKN5NyBQB-77">
          <mxGeometry width="50" height="50" relative="1" as="geometry">
            <mxPoint x="1008" y="540" as="sourcePoint" />
            <mxPoint x="1120" y="480" as="targetPoint" />
            <Array as="points">
              <mxPoint x="1060" y="540" />
              <mxPoint x="1060" y="300" />
            </Array>
          </mxGeometry>
        </mxCell>
        <mxCell id="6KIEwpLQ4VhNKN5NyBQB-87" value="&lt;font style=&quot;font-size: 40px;&quot;&gt;Users &lt;font&gt;&lt;font&gt;URLs&lt;/font&gt;&lt;/font&gt;&lt;/font&gt;" style="text;whiteSpace=wrap;html=1;align=center;" vertex="1" parent="1">
          <mxGeometry x="1376" y="220" width="370" height="60" as="geometry" />
        </mxCell>
        <mxCell id="6KIEwpLQ4VhNKN5NyBQB-103" value="" style="shape=table;startSize=0;container=1;collapsible=0;childLayout=tableLayout;fontSize=24;align=center;verticalAlign=middle;fontFamily=Courier New;" vertex="1" parent="1">
          <mxGeometry x="1128" y="440" width="870" height="80" as="geometry" />
        </mxCell>
        <mxCell id="6KIEwpLQ4VhNKN5NyBQB-104" value="" style="shape=tableRow;horizontal=0;startSize=0;swimlaneHead=0;swimlaneBody=0;strokeColor=inherit;top=0;left=0;bottom=0;right=0;collapsible=0;dropTarget=0;fillColor=none;points=[[0,0.5],[1,0.5]];portConstraint=eastwest;fontSize=24;" vertex="1" parent="6KIEwpLQ4VhNKN5NyBQB-103">
          <mxGeometry width="870" height="40" as="geometry" />
        </mxCell>
        <mxCell id="6KIEwpLQ4VhNKN5NyBQB-105" value="URL" style="shape=partialRectangle;whiteSpace=wrap;connectable=0;strokeColor=inherit;overflow=hidden;fillColor=none;top=0;left=0;bottom=0;right=0;pointerEvents=1;fontSize=24;fontStyle=1" vertex="1" parent="6KIEwpLQ4VhNKN5NyBQB-104">
          <mxGeometry width="500" height="40" as="geometry">
            <mxRectangle width="500" height="40" as="alternateBounds" />
          </mxGeometry>
        </mxCell>
        <mxCell id="6KIEwpLQ4VhNKN5NyBQB-106" value="View" style="shape=partialRectangle;whiteSpace=wrap;connectable=0;strokeColor=inherit;overflow=hidden;fillColor=none;top=0;left=0;bottom=0;right=0;pointerEvents=1;fontSize=24;fontStyle=1" vertex="1" parent="6KIEwpLQ4VhNKN5NyBQB-104">
          <mxGeometry x="500" width="370" height="40" as="geometry">
            <mxRectangle width="370" height="40" as="alternateBounds" />
          </mxGeometry>
        </mxCell>
        <mxCell id="6KIEwpLQ4VhNKN5NyBQB-107" value="" style="shape=tableRow;horizontal=0;startSize=0;swimlaneHead=0;swimlaneBody=0;strokeColor=inherit;top=0;left=0;bottom=0;right=0;collapsible=0;dropTarget=0;fillColor=none;points=[[0,0.5],[1,0.5]];portConstraint=eastwest;fontSize=24;" vertex="1" parent="6KIEwpLQ4VhNKN5NyBQB-103">
          <mxGeometry y="40" width="870" height="40" as="geometry" />
        </mxCell>
        <mxCell id="6KIEwpLQ4VhNKN5NyBQB-108" value="&#39;&lt;int:recipe_id&gt;/delete/&#39;" style="shape=partialRectangle;connectable=0;strokeColor=inherit;overflow=hidden;fillColor=none;top=0;left=0;bottom=0;right=0;pointerEvents=1;fontSize=24;verticalAlign=middle;whiteSpace=wrap;fontFamily=Courier New;" vertex="1" parent="6KIEwpLQ4VhNKN5NyBQB-107">
          <mxGeometry width="500" height="40" as="geometry">
            <mxRectangle width="500" height="40" as="alternateBounds" />
          </mxGeometry>
        </mxCell>
        <mxCell id="6KIEwpLQ4VhNKN5NyBQB-109" value="views.delete_recipe" style="shape=partialRectangle;whiteSpace=wrap;connectable=0;strokeColor=inherit;overflow=hidden;fillColor=none;top=0;left=0;bottom=0;right=0;pointerEvents=1;fontSize=24;fontFamily=Courier New;" vertex="1" parent="6KIEwpLQ4VhNKN5NyBQB-107">
          <mxGeometry x="500" width="370" height="40" as="geometry">
            <mxRectangle width="370" height="40" as="alternateBounds" />
          </mxGeometry>
        </mxCell>
        <mxCell id="6KIEwpLQ4VhNKN5NyBQB-110" value="" style="endArrow=classic;html=1;rounded=0;strokeWidth=3;entryX=0;entryY=0.5;entryDx=0;entryDy=0;" edge="1" parent="1" target="6KIEwpLQ4VhNKN5NyBQB-104">
          <mxGeometry width="50" height="50" relative="1" as="geometry">
            <mxPoint x="1010" y="700" as="sourcePoint" />
            <mxPoint x="1070" y="570" as="targetPoint" />
            <Array as="points">
              <mxPoint x="1070" y="700" />
              <mxPoint x="1080" y="700" />
              <mxPoint x="1080" y="460" />
            </Array>
          </mxGeometry>
        </mxCell>
        <mxCell id="6KIEwpLQ4VhNKN5NyBQB-111" value="&lt;font style=&quot;font-size: 40px;&quot;&gt;Recipes &lt;font&gt;&lt;font&gt;&lt;font&gt;URLs&lt;/font&gt;&lt;/font&gt;&lt;/font&gt;&lt;/font&gt;" style="text;whiteSpace=wrap;html=1;align=center;" vertex="1" parent="1">
          <mxGeometry x="1378" y="380" width="370" height="60" as="geometry" />
        </mxCell>
        <mxCell id="6KIEwpLQ4VhNKN5NyBQB-123" value="" style="shape=table;startSize=0;container=1;collapsible=0;childLayout=tableLayout;fontSize=24;align=center;verticalAlign=middle;fontFamily=Courier New;" vertex="1" parent="1">
          <mxGeometry x="1126" y="590" width="870" height="120" as="geometry" />
        </mxCell>
        <mxCell id="6KIEwpLQ4VhNKN5NyBQB-124" value="" style="shape=tableRow;horizontal=0;startSize=0;swimlaneHead=0;swimlaneBody=0;strokeColor=inherit;top=0;left=0;bottom=0;right=0;collapsible=0;dropTarget=0;fillColor=none;points=[[0,0.5],[1,0.5]];portConstraint=eastwest;fontSize=24;" vertex="1" parent="6KIEwpLQ4VhNKN5NyBQB-123">
          <mxGeometry width="870" height="40" as="geometry" />
        </mxCell>
        <mxCell id="6KIEwpLQ4VhNKN5NyBQB-125" value="URL" style="shape=partialRectangle;whiteSpace=wrap;connectable=0;strokeColor=inherit;overflow=hidden;fillColor=none;top=0;left=0;bottom=0;right=0;pointerEvents=1;fontSize=24;fontStyle=1" vertex="1" parent="6KIEwpLQ4VhNKN5NyBQB-124">
          <mxGeometry width="500" height="40" as="geometry">
            <mxRectangle width="500" height="40" as="alternateBounds" />
          </mxGeometry>
        </mxCell>
        <mxCell id="6KIEwpLQ4VhNKN5NyBQB-126" value="View" style="shape=partialRectangle;whiteSpace=wrap;connectable=0;strokeColor=inherit;overflow=hidden;fillColor=none;top=0;left=0;bottom=0;right=0;pointerEvents=1;fontSize=24;fontStyle=1" vertex="1" parent="6KIEwpLQ4VhNKN5NyBQB-124">
          <mxGeometry x="500" width="370" height="40" as="geometry">
            <mxRectangle width="370" height="40" as="alternateBounds" />
          </mxGeometry>
        </mxCell>
        <mxCell id="6KIEwpLQ4VhNKN5NyBQB-127" value="" style="shape=tableRow;horizontal=0;startSize=0;swimlaneHead=0;swimlaneBody=0;strokeColor=inherit;top=0;left=0;bottom=0;right=0;collapsible=0;dropTarget=0;fillColor=none;points=[[0,0.5],[1,0.5]];portConstraint=eastwest;fontSize=24;" vertex="1" parent="6KIEwpLQ4VhNKN5NyBQB-123">
          <mxGeometry y="40" width="870" height="40" as="geometry" />
        </mxCell>
        <mxCell id="6KIEwpLQ4VhNKN5NyBQB-128" value="&#39;rate_recipe/&lt;int:recipe_id&gt;/&#39;" style="shape=partialRectangle;connectable=0;strokeColor=inherit;overflow=hidden;fillColor=none;top=0;left=0;bottom=0;right=0;pointerEvents=1;fontSize=24;verticalAlign=middle;whiteSpace=wrap;fontFamily=Courier New;" vertex="1" parent="6KIEwpLQ4VhNKN5NyBQB-127">
          <mxGeometry width="500" height="40" as="geometry">
            <mxRectangle width="500" height="40" as="alternateBounds" />
          </mxGeometry>
        </mxCell>
        <mxCell id="6KIEwpLQ4VhNKN5NyBQB-129" value="views.rate_recipe" style="shape=partialRectangle;whiteSpace=wrap;connectable=0;strokeColor=inherit;overflow=hidden;fillColor=none;top=0;left=0;bottom=0;right=0;pointerEvents=1;fontSize=24;fontFamily=Courier New;" vertex="1" parent="6KIEwpLQ4VhNKN5NyBQB-127">
          <mxGeometry x="500" width="370" height="40" as="geometry">
            <mxRectangle width="370" height="40" as="alternateBounds" />
          </mxGeometry>
        </mxCell>
        <mxCell id="6KIEwpLQ4VhNKN5NyBQB-135" style="shape=tableRow;horizontal=0;startSize=0;swimlaneHead=0;swimlaneBody=0;strokeColor=inherit;top=0;left=0;bottom=0;right=0;collapsible=0;dropTarget=0;fillColor=none;points=[[0,0.5],[1,0.5]];portConstraint=eastwest;fontSize=24;" vertex="1" parent="6KIEwpLQ4VhNKN5NyBQB-123">
          <mxGeometry y="80" width="870" height="40" as="geometry" />
        </mxCell>
        <mxCell id="6KIEwpLQ4VhNKN5NyBQB-136" value="&#39;delete_rating/&lt;int:recipe_id&gt;/&#39;" style="shape=partialRectangle;connectable=0;strokeColor=inherit;overflow=hidden;fillColor=none;top=0;left=0;bottom=0;right=0;pointerEvents=1;fontSize=24;verticalAlign=middle;whiteSpace=wrap;fontFamily=Courier New;" vertex="1" parent="6KIEwpLQ4VhNKN5NyBQB-135">
          <mxGeometry width="500" height="40" as="geometry">
            <mxRectangle width="500" height="40" as="alternateBounds" />
          </mxGeometry>
        </mxCell>
        <mxCell id="6KIEwpLQ4VhNKN5NyBQB-137" value="views.delete_rating" style="shape=partialRectangle;whiteSpace=wrap;connectable=0;strokeColor=inherit;overflow=hidden;fillColor=none;top=0;left=0;bottom=0;right=0;pointerEvents=1;fontSize=24;fontFamily=Courier New;" vertex="1" parent="6KIEwpLQ4VhNKN5NyBQB-135">
          <mxGeometry x="500" width="370" height="40" as="geometry">
            <mxRectangle width="370" height="40" as="alternateBounds" />
          </mxGeometry>
        </mxCell>
        <mxCell id="6KIEwpLQ4VhNKN5NyBQB-130" value="" style="endArrow=classic;html=1;rounded=0;strokeWidth=3;entryX=0;entryY=0.5;entryDx=0;entryDy=0;exitX=1;exitY=0.5;exitDx=0;exitDy=0;" edge="1" parent="1" target="6KIEwpLQ4VhNKN5NyBQB-124" source="6KIEwpLQ4VhNKN5NyBQB-112">
          <mxGeometry width="50" height="50" relative="1" as="geometry">
            <mxPoint x="1008" y="850" as="sourcePoint" />
            <mxPoint x="1068" y="720" as="targetPoint" />
            <Array as="points">
              <mxPoint x="1090" y="740" />
              <mxPoint x="1100" y="740" />
              <mxPoint x="1100" y="610" />
            </Array>
          </mxGeometry>
        </mxCell>
        <mxCell id="6KIEwpLQ4VhNKN5NyBQB-131" value="&lt;font style=&quot;font-size: 40px;&quot;&gt;Ratings &lt;font&gt;&lt;font&gt;&lt;font&gt;&lt;font&gt;URLs&lt;/font&gt;&lt;/font&gt;&lt;/font&gt;&lt;/font&gt;&lt;/font&gt;" style="text;whiteSpace=wrap;html=1;align=center;" vertex="1" parent="1">
          <mxGeometry x="1376" y="530" width="370" height="60" as="geometry" />
        </mxCell>
        <mxCell id="6KIEwpLQ4VhNKN5NyBQB-153" value="" style="shape=table;startSize=0;container=1;collapsible=0;childLayout=tableLayout;fontSize=24;align=center;verticalAlign=middle;fontFamily=Courier New;" vertex="1" parent="1">
          <mxGeometry x="1128" y="780" width="870" height="120" as="geometry" />
        </mxCell>
        <mxCell id="6KIEwpLQ4VhNKN5NyBQB-154" value="" style="shape=tableRow;horizontal=0;startSize=0;swimlaneHead=0;swimlaneBody=0;strokeColor=inherit;top=0;left=0;bottom=0;right=0;collapsible=0;dropTarget=0;fillColor=none;points=[[0,0.5],[1,0.5]];portConstraint=eastwest;fontSize=24;" vertex="1" parent="6KIEwpLQ4VhNKN5NyBQB-153">
          <mxGeometry width="870" height="40" as="geometry" />
        </mxCell>
        <mxCell id="6KIEwpLQ4VhNKN5NyBQB-155" value="URL" style="shape=partialRectangle;whiteSpace=wrap;connectable=0;strokeColor=inherit;overflow=hidden;fillColor=none;top=0;left=0;bottom=0;right=0;pointerEvents=1;fontSize=24;fontStyle=1" vertex="1" parent="6KIEwpLQ4VhNKN5NyBQB-154">
          <mxGeometry width="500" height="40" as="geometry">
            <mxRectangle width="500" height="40" as="alternateBounds" />
          </mxGeometry>
        </mxCell>
        <mxCell id="6KIEwpLQ4VhNKN5NyBQB-156" value="View" style="shape=partialRectangle;whiteSpace=wrap;connectable=0;strokeColor=inherit;overflow=hidden;fillColor=none;top=0;left=0;bottom=0;right=0;pointerEvents=1;fontSize=24;fontStyle=1" vertex="1" parent="6KIEwpLQ4VhNKN5NyBQB-154">
          <mxGeometry x="500" width="370" height="40" as="geometry">
            <mxRectangle width="370" height="40" as="alternateBounds" />
          </mxGeometry>
        </mxCell>
        <mxCell id="6KIEwpLQ4VhNKN5NyBQB-157" value="" style="shape=tableRow;horizontal=0;startSize=0;swimlaneHead=0;swimlaneBody=0;strokeColor=inherit;top=0;left=0;bottom=0;right=0;collapsible=0;dropTarget=0;fillColor=none;points=[[0,0.5],[1,0.5]];portConstraint=eastwest;fontSize=24;" vertex="1" parent="6KIEwpLQ4VhNKN5NyBQB-153">
          <mxGeometry y="40" width="870" height="40" as="geometry" />
        </mxCell>
        <mxCell id="6KIEwpLQ4VhNKN5NyBQB-158" value="&#39;comments/create/&#39;" style="shape=partialRectangle;connectable=0;strokeColor=inherit;overflow=hidden;fillColor=none;top=0;left=0;bottom=0;right=0;pointerEvents=1;fontSize=24;verticalAlign=middle;whiteSpace=wrap;fontFamily=Courier New;" vertex="1" parent="6KIEwpLQ4VhNKN5NyBQB-157">
          <mxGeometry width="500" height="40" as="geometry">
            <mxRectangle width="500" height="40" as="alternateBounds" />
          </mxGeometry>
        </mxCell>
        <mxCell id="6KIEwpLQ4VhNKN5NyBQB-159" value="views.create_comment" style="shape=partialRectangle;whiteSpace=wrap;connectable=0;strokeColor=inherit;overflow=hidden;fillColor=none;top=0;left=0;bottom=0;right=0;pointerEvents=1;fontSize=24;fontFamily=Courier New;" vertex="1" parent="6KIEwpLQ4VhNKN5NyBQB-157">
          <mxGeometry x="500" width="370" height="40" as="geometry">
            <mxRectangle width="370" height="40" as="alternateBounds" />
          </mxGeometry>
        </mxCell>
        <mxCell id="6KIEwpLQ4VhNKN5NyBQB-160" style="shape=tableRow;horizontal=0;startSize=0;swimlaneHead=0;swimlaneBody=0;strokeColor=inherit;top=0;left=0;bottom=0;right=0;collapsible=0;dropTarget=0;fillColor=none;points=[[0,0.5],[1,0.5]];portConstraint=eastwest;fontSize=24;" vertex="1" parent="6KIEwpLQ4VhNKN5NyBQB-153">
          <mxGeometry y="80" width="870" height="40" as="geometry" />
        </mxCell>
        <mxCell id="6KIEwpLQ4VhNKN5NyBQB-161" value="&#39;delete/&lt;int:comment_id&gt;/&#39;" style="shape=partialRectangle;connectable=0;strokeColor=inherit;overflow=hidden;fillColor=none;top=0;left=0;bottom=0;right=0;pointerEvents=1;fontSize=24;verticalAlign=middle;whiteSpace=wrap;fontFamily=Courier New;" vertex="1" parent="6KIEwpLQ4VhNKN5NyBQB-160">
          <mxGeometry width="500" height="40" as="geometry">
            <mxRectangle width="500" height="40" as="alternateBounds" />
          </mxGeometry>
        </mxCell>
        <mxCell id="6KIEwpLQ4VhNKN5NyBQB-162" value="views.delete_comment" style="shape=partialRectangle;whiteSpace=wrap;connectable=0;strokeColor=inherit;overflow=hidden;fillColor=none;top=0;left=0;bottom=0;right=0;pointerEvents=1;fontSize=24;fontFamily=Courier New;" vertex="1" parent="6KIEwpLQ4VhNKN5NyBQB-160">
          <mxGeometry x="500" width="370" height="40" as="geometry">
            <mxRectangle width="370" height="40" as="alternateBounds" />
          </mxGeometry>
        </mxCell>
        <mxCell id="6KIEwpLQ4VhNKN5NyBQB-163" value="" style="endArrow=classic;html=1;rounded=0;strokeWidth=3;entryX=0;entryY=0.5;entryDx=0;entryDy=0;exitX=1;exitY=0.5;exitDx=0;exitDy=0;" edge="1" parent="1" target="6KIEwpLQ4VhNKN5NyBQB-154" source="6KIEwpLQ4VhNKN5NyBQB-138">
          <mxGeometry width="50" height="50" relative="1" as="geometry">
            <mxPoint x="1010" y="1040" as="sourcePoint" />
            <mxPoint x="1070" y="910" as="targetPoint" />
            <Array as="points">
              <mxPoint x="1040" y="780" />
              <mxPoint x="1040" y="800" />
            </Array>
          </mxGeometry>
        </mxCell>
        <mxCell id="6KIEwpLQ4VhNKN5NyBQB-164" value="&lt;font style=&quot;font-size: 40px;&quot;&gt;Comments &lt;font&gt;&lt;font&gt;&lt;font&gt;&lt;font&gt;&lt;font&gt;URLs&lt;/font&gt;&lt;/font&gt;&lt;/font&gt;&lt;/font&gt;&lt;/font&gt;&lt;/font&gt;" style="text;whiteSpace=wrap;html=1;align=center;" vertex="1" parent="1">
          <mxGeometry x="1378" y="720" width="370" height="60" as="geometry" />
        </mxCell>
      </root>
    </mxGraphModel>
  </diagram>
</mxfile>
